<mxfile host="Electron" modified="2024-07-16T11:26:00.246Z" agent="Mozilla/5.0 (Windows NT 10.0; Win64; x64) AppleWebKit/537.36 (KHTML, like Gecko) draw.io/24.6.4 Chrome/124.0.6367.207 Electron/30.0.6 Safari/537.36" version="24.6.4" etag="c0aTehx7YWA4m8PJ3uTZ" type="device">
  <diagram id="AsJOlm-l_zC63JN11X0E" name="Page-1">
    <mxGraphModel dx="2017" dy="690" grid="1" gridSize="10" guides="1" tooltips="1" connect="1" arrows="1" fold="1" page="1" pageScale="1" pageWidth="850" pageHeight="1100" math="0" shadow="0">
      <root>
        <mxCell id="0" />
        <mxCell id="1" parent="0" />
        <mxCell id="iAE-VoOAichR33LJ9eiH-1" value="&lt;span id=&quot;docs-internal-guid-0e9316ce-7fff-bb7e-8487-36a501cd00f7&quot;&gt;&lt;span style=&quot;font-size: 14pt; font-family: Arial, sans-serif; background-color: transparent; font-variant-numeric: normal; font-variant-east-asian: normal; font-variant-alternates: normal; font-variant-position: normal; vertical-align: baseline; white-space-collapse: preserve;&quot;&gt;musician&lt;/span&gt;&lt;/span&gt;" style="whiteSpace=wrap;html=1;align=center;" vertex="1" parent="1">
          <mxGeometry x="120" y="180" width="100" height="40" as="geometry" />
        </mxCell>
        <mxCell id="iAE-VoOAichR33LJ9eiH-3" value="id" style="ellipse;whiteSpace=wrap;html=1;align=center;fontStyle=4;" vertex="1" parent="1">
          <mxGeometry x="50" y="140" width="80" height="20" as="geometry" />
        </mxCell>
        <mxCell id="iAE-VoOAichR33LJ9eiH-4" value="" style="endArrow=none;html=1;rounded=0;exitX=0.5;exitY=1;exitDx=0;exitDy=0;entryX=0.25;entryY=0;entryDx=0;entryDy=0;" edge="1" parent="1" source="iAE-VoOAichR33LJ9eiH-3" target="iAE-VoOAichR33LJ9eiH-1">
          <mxGeometry relative="1" as="geometry">
            <mxPoint x="130" y="150" as="sourcePoint" />
            <mxPoint x="140" y="170" as="targetPoint" />
          </mxGeometry>
        </mxCell>
        <mxCell id="iAE-VoOAichR33LJ9eiH-5" value="name" style="ellipse;whiteSpace=wrap;html=1;align=center;" vertex="1" parent="1">
          <mxGeometry x="70" y="90" width="80" height="20" as="geometry" />
        </mxCell>
        <mxCell id="iAE-VoOAichR33LJ9eiH-6" value="" style="endArrow=none;html=1;rounded=0;entryX=0.5;entryY=0;entryDx=0;entryDy=0;" edge="1" parent="1" source="iAE-VoOAichR33LJ9eiH-5" target="iAE-VoOAichR33LJ9eiH-1">
          <mxGeometry relative="1" as="geometry">
            <mxPoint x="200" y="160" as="sourcePoint" />
            <mxPoint x="360" y="160" as="targetPoint" />
          </mxGeometry>
        </mxCell>
        <mxCell id="iAE-VoOAichR33LJ9eiH-7" value="adress" style="ellipse;whiteSpace=wrap;html=1;align=center;" vertex="1" parent="1">
          <mxGeometry x="250" y="150" width="80" height="30" as="geometry" />
        </mxCell>
        <mxCell id="iAE-VoOAichR33LJ9eiH-8" value="" style="endArrow=none;html=1;rounded=0;entryX=0;entryY=0.5;entryDx=0;entryDy=0;exitX=1;exitY=0.5;exitDx=0;exitDy=0;" edge="1" parent="1" source="iAE-VoOAichR33LJ9eiH-1" target="iAE-VoOAichR33LJ9eiH-7">
          <mxGeometry relative="1" as="geometry">
            <mxPoint x="230" y="200" as="sourcePoint" />
            <mxPoint x="240" y="200" as="targetPoint" />
          </mxGeometry>
        </mxCell>
        <mxCell id="iAE-VoOAichR33LJ9eiH-9" value="street" style="ellipse;whiteSpace=wrap;html=1;align=center;" vertex="1" parent="1">
          <mxGeometry x="200" y="80" width="80" height="30" as="geometry" />
        </mxCell>
        <mxCell id="iAE-VoOAichR33LJ9eiH-10" value="city&amp;nbsp;" style="ellipse;whiteSpace=wrap;html=1;align=center;" vertex="1" parent="1">
          <mxGeometry x="300" y="110" width="70" height="30" as="geometry" />
        </mxCell>
        <mxCell id="iAE-VoOAichR33LJ9eiH-11" value="" style="endArrow=none;html=1;rounded=0;entryX=0.006;entryY=0.72;entryDx=0;entryDy=0;entryPerimeter=0;" edge="1" parent="1" source="iAE-VoOAichR33LJ9eiH-7" target="iAE-VoOAichR33LJ9eiH-10">
          <mxGeometry relative="1" as="geometry">
            <mxPoint x="230" y="250" as="sourcePoint" />
            <mxPoint x="390" y="250" as="targetPoint" />
          </mxGeometry>
        </mxCell>
        <mxCell id="iAE-VoOAichR33LJ9eiH-12" value="" style="endArrow=none;html=1;rounded=0;exitX=0.5;exitY=1;exitDx=0;exitDy=0;entryX=0.2;entryY=0;entryDx=0;entryDy=0;entryPerimeter=0;" edge="1" parent="1" source="iAE-VoOAichR33LJ9eiH-9" target="iAE-VoOAichR33LJ9eiH-7">
          <mxGeometry relative="1" as="geometry">
            <mxPoint x="240" y="130" as="sourcePoint" />
            <mxPoint x="400" y="130" as="targetPoint" />
          </mxGeometry>
        </mxCell>
        <mxCell id="iAE-VoOAichR33LJ9eiH-13" value="&lt;span id=&quot;docs-internal-guid-1eb871b2-7fff-c193-e61b-8e2b59787552&quot;&gt;&lt;span style=&quot;font-size: 14pt; font-family: Arial, sans-serif; background-color: transparent; font-variant-numeric: normal; font-variant-east-asian: normal; font-variant-alternates: normal; font-variant-position: normal; vertical-align: baseline; white-space-collapse: preserve;&quot;&gt;instrument &lt;/span&gt;&lt;/span&gt;" style="whiteSpace=wrap;html=1;align=center;" vertex="1" parent="1">
          <mxGeometry x="630" y="200" width="100" height="40" as="geometry" />
        </mxCell>
        <mxCell id="iAE-VoOAichR33LJ9eiH-14" value="name" style="ellipse;whiteSpace=wrap;html=1;align=center;fontStyle=4;" vertex="1" parent="1">
          <mxGeometry x="590" y="90" width="80" height="20" as="geometry" />
        </mxCell>
        <mxCell id="iAE-VoOAichR33LJ9eiH-15" value="" style="endArrow=none;html=1;rounded=0;exitX=0.5;exitY=1;exitDx=0;exitDy=0;entryX=0.25;entryY=0;entryDx=0;entryDy=0;" edge="1" parent="1" source="iAE-VoOAichR33LJ9eiH-14" target="iAE-VoOAichR33LJ9eiH-13">
          <mxGeometry relative="1" as="geometry">
            <mxPoint x="640" y="180" as="sourcePoint" />
            <mxPoint x="650" y="200" as="targetPoint" />
          </mxGeometry>
        </mxCell>
        <mxCell id="iAE-VoOAichR33LJ9eiH-16" value="&lt;span id=&quot;docs-internal-guid-7783df57-7fff-55ad-9d2b-7c2a6f5faad5&quot;&gt;&lt;span style=&quot;font-family: Arial, sans-serif; background-color: transparent; font-variant-numeric: normal; font-variant-east-asian: normal; font-variant-alternates: normal; font-variant-position: normal; vertical-align: baseline; white-space-collapse: preserve;&quot;&gt;&lt;font style=&quot;font-size: 12px;&quot;&gt;&amp;nbsp;musical key&lt;/font&gt;&lt;/span&gt;&lt;/span&gt;" style="ellipse;whiteSpace=wrap;html=1;align=center;" vertex="1" parent="1">
          <mxGeometry x="670" y="140" width="90" height="20" as="geometry" />
        </mxCell>
        <mxCell id="iAE-VoOAichR33LJ9eiH-17" value="" style="endArrow=none;html=1;rounded=0;entryX=0.5;entryY=0;entryDx=0;entryDy=0;" edge="1" parent="1" source="iAE-VoOAichR33LJ9eiH-16" target="iAE-VoOAichR33LJ9eiH-13">
          <mxGeometry relative="1" as="geometry">
            <mxPoint x="710" y="190" as="sourcePoint" />
            <mxPoint x="870" y="190" as="targetPoint" />
          </mxGeometry>
        </mxCell>
        <mxCell id="iAE-VoOAichR33LJ9eiH-24" value="&lt;span id=&quot;docs-internal-guid-1eb871b2-7fff-c193-e61b-8e2b59787552&quot;&gt;&lt;span style=&quot;font-size: 14pt; font-family: Arial, sans-serif; background-color: transparent; font-variant-numeric: normal; font-variant-east-asian: normal; font-variant-alternates: normal; font-variant-position: normal; vertical-align: baseline; white-space-collapse: preserve;&quot;&gt;song&lt;/span&gt;&lt;/span&gt;" style="whiteSpace=wrap;html=1;align=center;" vertex="1" parent="1">
          <mxGeometry x="660" y="370" width="100" height="40" as="geometry" />
        </mxCell>
        <mxCell id="iAE-VoOAichR33LJ9eiH-25" value="&lt;span id=&quot;docs-internal-guid-3f729074-7fff-93f0-0685-3b804ea93db5&quot;&gt;&lt;span style=&quot;font-family: Arial, sans-serif; background-color: transparent; font-variant-numeric: normal; font-variant-east-asian: normal; font-variant-alternates: normal; font-variant-position: normal; text-decoration-line: none; vertical-align: baseline; white-space-collapse: preserve;&quot;&gt;&lt;font style=&quot;font-size: 15px;&quot;&gt;title &lt;/font&gt;&lt;/span&gt;&lt;/span&gt;" style="ellipse;whiteSpace=wrap;html=1;align=center;fontStyle=4;" vertex="1" parent="1">
          <mxGeometry x="660" y="490" width="90" height="20" as="geometry" />
        </mxCell>
        <mxCell id="iAE-VoOAichR33LJ9eiH-26" value="" style="endArrow=none;html=1;rounded=0;exitX=0.5;exitY=0;exitDx=0;exitDy=0;entryX=0.352;entryY=1.01;entryDx=0;entryDy=0;entryPerimeter=0;" edge="1" parent="1" source="iAE-VoOAichR33LJ9eiH-25" target="iAE-VoOAichR33LJ9eiH-24">
          <mxGeometry relative="1" as="geometry">
            <mxPoint x="680" y="370" as="sourcePoint" />
            <mxPoint x="710" y="440" as="targetPoint" />
          </mxGeometry>
        </mxCell>
        <mxCell id="iAE-VoOAichR33LJ9eiH-27" value="&lt;span id=&quot;docs-internal-guid-465629bc-7fff-a6db-0acb-5a7f8c7631a4&quot;&gt;&lt;span style=&quot;font-size: 15px; font-family: Arial, sans-serif; background-color: transparent; font-variant-numeric: normal; font-variant-east-asian: normal; font-variant-alternates: normal; font-variant-position: normal; vertical-align: baseline; white-space-collapse: preserve;&quot;&gt;author&lt;/span&gt;&lt;/span&gt;" style="ellipse;whiteSpace=wrap;html=1;align=center;" vertex="1" parent="1">
          <mxGeometry x="720" y="450" width="80" height="20" as="geometry" />
        </mxCell>
        <mxCell id="iAE-VoOAichR33LJ9eiH-28" value="" style="endArrow=none;html=1;rounded=0;entryX=0.75;entryY=1;entryDx=0;entryDy=0;" edge="1" parent="1" source="iAE-VoOAichR33LJ9eiH-27" target="iAE-VoOAichR33LJ9eiH-24">
          <mxGeometry relative="1" as="geometry">
            <mxPoint x="750" y="380" as="sourcePoint" />
            <mxPoint x="740" y="430" as="targetPoint" />
          </mxGeometry>
        </mxCell>
        <mxCell id="iAE-VoOAichR33LJ9eiH-29" value="album" style="whiteSpace=wrap;html=1;align=center;" vertex="1" parent="1">
          <mxGeometry x="30" y="380" width="100" height="40" as="geometry" />
        </mxCell>
        <mxCell id="iAE-VoOAichR33LJ9eiH-31" value="&lt;span id=&quot;docs-internal-guid-b490480e-7fff-ca14-e767-51062e35ed1d&quot;&gt;&lt;span style=&quot;font-family: Arial, sans-serif; background-color: transparent; font-variant-numeric: normal; font-variant-east-asian: normal; font-variant-alternates: normal; font-variant-position: normal; text-decoration-line: none; vertical-align: baseline; white-space-collapse: preserve; font-size: 11px;&quot;&gt;album identifier&lt;/span&gt;&lt;/span&gt;" style="ellipse;whiteSpace=wrap;html=1;align=center;fontStyle=4;" vertex="1" parent="1">
          <mxGeometry x="-130" y="330" width="90" height="30" as="geometry" />
        </mxCell>
        <mxCell id="iAE-VoOAichR33LJ9eiH-32" value="" style="endArrow=none;html=1;rounded=0;exitX=0.5;exitY=1;exitDx=0;exitDy=0;entryX=0.25;entryY=0;entryDx=0;entryDy=0;" edge="1" parent="1" source="iAE-VoOAichR33LJ9eiH-31" target="iAE-VoOAichR33LJ9eiH-29">
          <mxGeometry relative="1" as="geometry">
            <mxPoint x="60" y="340" as="sourcePoint" />
            <mxPoint x="220" y="340" as="targetPoint" />
          </mxGeometry>
        </mxCell>
        <mxCell id="iAE-VoOAichR33LJ9eiH-33" value="title&amp;nbsp;" style="ellipse;whiteSpace=wrap;html=1;align=center;" vertex="1" parent="1">
          <mxGeometry x="50" y="318" width="80" height="20" as="geometry" />
        </mxCell>
        <mxCell id="iAE-VoOAichR33LJ9eiH-34" value="copyright" style="ellipse;whiteSpace=wrap;html=1;align=center;" vertex="1" parent="1">
          <mxGeometry x="130" y="340" width="80" height="30" as="geometry" />
        </mxCell>
        <mxCell id="iAE-VoOAichR33LJ9eiH-35" value="date" style="ellipse;whiteSpace=wrap;html=1;align=center;" vertex="1" parent="1">
          <mxGeometry x="-100" y="380" width="90" height="30" as="geometry" />
        </mxCell>
        <mxCell id="iAE-VoOAichR33LJ9eiH-36" value="" style="endArrow=none;html=1;rounded=0;entryX=0.75;entryY=0;entryDx=0;entryDy=0;" edge="1" parent="1" source="iAE-VoOAichR33LJ9eiH-33" target="iAE-VoOAichR33LJ9eiH-29">
          <mxGeometry relative="1" as="geometry">
            <mxPoint x="120" y="330" as="sourcePoint" />
            <mxPoint x="120" y="490" as="targetPoint" />
          </mxGeometry>
        </mxCell>
        <mxCell id="iAE-VoOAichR33LJ9eiH-37" value="" style="endArrow=none;html=1;rounded=0;entryX=0.916;entryY=-0.03;entryDx=0;entryDy=0;entryPerimeter=0;exitX=0.048;exitY=0.79;exitDx=0;exitDy=0;exitPerimeter=0;" edge="1" parent="1" source="iAE-VoOAichR33LJ9eiH-34" target="iAE-VoOAichR33LJ9eiH-29">
          <mxGeometry relative="1" as="geometry">
            <mxPoint x="210" y="320" as="sourcePoint" />
            <mxPoint x="370" y="320" as="targetPoint" />
          </mxGeometry>
        </mxCell>
        <mxCell id="iAE-VoOAichR33LJ9eiH-38" value="" style="endArrow=none;html=1;rounded=0;exitX=0.94;exitY=0.78;exitDx=0;exitDy=0;exitPerimeter=0;entryX=0;entryY=0.5;entryDx=0;entryDy=0;" edge="1" parent="1" source="iAE-VoOAichR33LJ9eiH-35" target="iAE-VoOAichR33LJ9eiH-29">
          <mxGeometry relative="1" as="geometry">
            <mxPoint x="40" y="440" as="sourcePoint" />
            <mxPoint x="200" y="440" as="targetPoint" />
          </mxGeometry>
        </mxCell>
        <mxCell id="iAE-VoOAichR33LJ9eiH-40" style="edgeStyle=orthogonalEdgeStyle;rounded=0;orthogonalLoop=1;jettySize=auto;html=1;exitX=0.5;exitY=1;exitDx=0;exitDy=0;" edge="1" parent="1" source="iAE-VoOAichR33LJ9eiH-33" target="iAE-VoOAichR33LJ9eiH-33">
          <mxGeometry relative="1" as="geometry" />
        </mxCell>
        <mxCell id="iAE-VoOAichR33LJ9eiH-41" value="play" style="shape=rhombus;perimeter=rhombusPerimeter;whiteSpace=wrap;html=1;align=center;" vertex="1" parent="1">
          <mxGeometry x="380" y="190" width="80" height="30" as="geometry" />
        </mxCell>
        <mxCell id="iAE-VoOAichR33LJ9eiH-42" value="" style="endArrow=none;html=1;rounded=0;entryX=0;entryY=0.5;entryDx=0;entryDy=0;" edge="1" parent="1" source="iAE-VoOAichR33LJ9eiH-41" target="iAE-VoOAichR33LJ9eiH-13">
          <mxGeometry relative="1" as="geometry">
            <mxPoint x="460" y="205" as="sourcePoint" />
            <mxPoint x="620" y="205" as="targetPoint" />
          </mxGeometry>
        </mxCell>
        <mxCell id="iAE-VoOAichR33LJ9eiH-43" value="&lt;font style=&quot;font-size: 13px;&quot;&gt;M&lt;/font&gt;" style="edgeLabel;html=1;align=center;verticalAlign=middle;resizable=0;points=[];" vertex="1" connectable="0" parent="iAE-VoOAichR33LJ9eiH-42">
          <mxGeometry x="0.6484" relative="1" as="geometry">
            <mxPoint x="21" y="-8" as="offset" />
          </mxGeometry>
        </mxCell>
        <mxCell id="iAE-VoOAichR33LJ9eiH-45" value="&lt;font style=&quot;font-size: 13px;&quot;&gt;M&lt;/font&gt;" style="edgeLabel;html=1;align=center;verticalAlign=middle;resizable=0;points=[];" vertex="1" connectable="0" parent="iAE-VoOAichR33LJ9eiH-42">
          <mxGeometry x="0.6484" relative="1" as="geometry">
            <mxPoint x="-359" y="-18" as="offset" />
          </mxGeometry>
        </mxCell>
        <mxCell id="iAE-VoOAichR33LJ9eiH-44" value="" style="endArrow=none;html=1;rounded=0;entryX=0;entryY=0.5;entryDx=0;entryDy=0;exitX=1;exitY=0.625;exitDx=0;exitDy=0;exitPerimeter=0;" edge="1" parent="1" source="iAE-VoOAichR33LJ9eiH-1" target="iAE-VoOAichR33LJ9eiH-41">
          <mxGeometry relative="1" as="geometry">
            <mxPoint x="220" y="210" as="sourcePoint" />
            <mxPoint x="380" y="210" as="targetPoint" />
          </mxGeometry>
        </mxCell>
        <mxCell id="iAE-VoOAichR33LJ9eiH-46" value="has" style="shape=rhombus;perimeter=rhombusPerimeter;whiteSpace=wrap;html=1;align=center;" vertex="1" parent="1">
          <mxGeometry x="340" y="375" width="90" height="40" as="geometry" />
        </mxCell>
        <mxCell id="iAE-VoOAichR33LJ9eiH-48" value="" style="endArrow=none;html=1;rounded=0;exitX=1;exitY=0.5;exitDx=0;exitDy=0;entryX=0;entryY=0.5;entryDx=0;entryDy=0;" edge="1" parent="1" source="iAE-VoOAichR33LJ9eiH-29" target="iAE-VoOAichR33LJ9eiH-46">
          <mxGeometry relative="1" as="geometry">
            <mxPoint x="170" y="400" as="sourcePoint" />
            <mxPoint x="330" y="400" as="targetPoint" />
          </mxGeometry>
        </mxCell>
        <mxCell id="iAE-VoOAichR33LJ9eiH-50" value="1" style="text;html=1;align=center;verticalAlign=middle;resizable=0;points=[];autosize=1;strokeColor=none;fillColor=none;" vertex="1" parent="1">
          <mxGeometry x="125" y="378" width="30" height="30" as="geometry" />
        </mxCell>
        <mxCell id="iAE-VoOAichR33LJ9eiH-54" value="performed" style="shape=rhombus;perimeter=rhombusPerimeter;whiteSpace=wrap;html=1;align=center;" vertex="1" parent="1">
          <mxGeometry x="410" y="280" width="90" height="50" as="geometry" />
        </mxCell>
        <mxCell id="iAE-VoOAichR33LJ9eiH-55" value="" style="endArrow=none;html=1;rounded=0;exitX=0.5;exitY=1;exitDx=0;exitDy=0;entryX=0;entryY=0.5;entryDx=0;entryDy=0;" edge="1" parent="1" source="iAE-VoOAichR33LJ9eiH-1" target="iAE-VoOAichR33LJ9eiH-54">
          <mxGeometry relative="1" as="geometry">
            <mxPoint x="230" y="260" as="sourcePoint" />
            <mxPoint x="390" y="260" as="targetPoint" />
          </mxGeometry>
        </mxCell>
        <mxCell id="iAE-VoOAichR33LJ9eiH-57" value="M" style="text;html=1;align=center;verticalAlign=middle;resizable=0;points=[];autosize=1;strokeColor=none;fillColor=none;" vertex="1" parent="1">
          <mxGeometry x="635" y="338" width="30" height="30" as="geometry" />
        </mxCell>
        <mxCell id="iAE-VoOAichR33LJ9eiH-58" value="M" style="text;html=1;align=center;verticalAlign=middle;resizable=0;points=[];autosize=1;strokeColor=none;fillColor=none;" vertex="1" parent="1">
          <mxGeometry x="150" y="220" width="30" height="30" as="geometry" />
        </mxCell>
        <mxCell id="iAE-VoOAichR33LJ9eiH-59" value="&lt;span id=&quot;docs-internal-guid-bc6eb188-7fff-1ae8-5bc9-5be795378002&quot;&gt;&lt;span style=&quot;font-size: 16px; font-family: Arial, sans-serif; background-color: transparent; font-variant-numeric: normal; font-variant-east-asian: normal; font-variant-alternates: normal; font-variant-position: normal; vertical-align: baseline; white-space-collapse: preserve;&quot;&gt;producer&lt;/span&gt;&lt;/span&gt;" style="shape=rhombus;perimeter=rhombusPerimeter;whiteSpace=wrap;html=1;align=center;" vertex="1" parent="1">
          <mxGeometry x="-55" y="220" width="100" height="45" as="geometry" />
        </mxCell>
        <mxCell id="iAE-VoOAichR33LJ9eiH-62" value="" style="endArrow=none;html=1;rounded=0;exitX=0.5;exitY=0;exitDx=0;exitDy=0;entryX=0;entryY=0.5;entryDx=0;entryDy=0;" edge="1" parent="1" source="iAE-VoOAichR33LJ9eiH-59" target="iAE-VoOAichR33LJ9eiH-1">
          <mxGeometry relative="1" as="geometry">
            <mxPoint x="-10" y="210" as="sourcePoint" />
            <mxPoint x="150" y="210" as="targetPoint" />
          </mxGeometry>
        </mxCell>
        <mxCell id="iAE-VoOAichR33LJ9eiH-63" value="" style="endArrow=none;html=1;rounded=0;exitX=0.5;exitY=1;exitDx=0;exitDy=0;entryX=0.347;entryY=-0.061;entryDx=0;entryDy=0;entryPerimeter=0;" edge="1" parent="1" source="iAE-VoOAichR33LJ9eiH-59" target="iAE-VoOAichR33LJ9eiH-29">
          <mxGeometry relative="1" as="geometry">
            <mxPoint x="20" y="280" as="sourcePoint" />
            <mxPoint x="180" y="280" as="targetPoint" />
          </mxGeometry>
        </mxCell>
        <mxCell id="iAE-VoOAichR33LJ9eiH-64" value="1" style="text;html=1;align=center;verticalAlign=middle;resizable=0;points=[];autosize=1;strokeColor=none;fillColor=none;" vertex="1" parent="1">
          <mxGeometry x="85" y="178" width="30" height="30" as="geometry" />
        </mxCell>
        <mxCell id="iAE-VoOAichR33LJ9eiH-65" value="M" style="text;html=1;align=center;verticalAlign=middle;resizable=0;points=[];autosize=1;strokeColor=none;fillColor=none;" vertex="1" parent="1">
          <mxGeometry x="50" y="350" width="30" height="30" as="geometry" />
        </mxCell>
        <mxCell id="iAE-VoOAichR33LJ9eiH-66" value="" style="endArrow=none;html=1;rounded=0;" edge="1" parent="1" target="iAE-VoOAichR33LJ9eiH-46">
          <mxGeometry relative="1" as="geometry">
            <mxPoint x="130" y="410" as="sourcePoint" />
            <mxPoint x="290" y="410" as="targetPoint" />
          </mxGeometry>
        </mxCell>
        <mxCell id="iAE-VoOAichR33LJ9eiH-67" value="" style="endArrow=none;html=1;rounded=0;exitX=1;exitY=0.5;exitDx=0;exitDy=0;entryX=0;entryY=0.5;entryDx=0;entryDy=0;" edge="1" parent="1" source="iAE-VoOAichR33LJ9eiH-46" target="iAE-VoOAichR33LJ9eiH-24">
          <mxGeometry relative="1" as="geometry">
            <mxPoint x="430" y="390" as="sourcePoint" />
            <mxPoint x="590" y="390" as="targetPoint" />
          </mxGeometry>
        </mxCell>
        <mxCell id="iAE-VoOAichR33LJ9eiH-68" value="" style="endArrow=none;html=1;rounded=0;exitX=1;exitY=1;exitDx=0;exitDy=0;" edge="1" parent="1" source="iAE-VoOAichR33LJ9eiH-54">
          <mxGeometry relative="1" as="geometry">
            <mxPoint x="480" y="310" as="sourcePoint" />
            <mxPoint x="660" y="370" as="targetPoint" />
          </mxGeometry>
        </mxCell>
        <mxCell id="iAE-VoOAichR33LJ9eiH-69" value="" style="endArrow=none;html=1;rounded=0;exitX=0.362;exitY=0.938;exitDx=0;exitDy=0;exitPerimeter=0;" edge="1" parent="1" source="iAE-VoOAichR33LJ9eiH-59" target="iAE-VoOAichR33LJ9eiH-29">
          <mxGeometry relative="1" as="geometry">
            <mxPoint x="-40" y="320" as="sourcePoint" />
            <mxPoint x="120" y="320" as="targetPoint" />
          </mxGeometry>
        </mxCell>
      </root>
    </mxGraphModel>
  </diagram>
</mxfile>
